:SAMPLES-PER-SECOND 30
:FULLY-SPECIFIED
:DEGREES
123
root  3.38205 38.6441 -4.1983 -150.811 -85.9447 149.869
RightUpLeg  -21.4457 -5.7198 -5.72109
RightLeg  6.6602 6.86627 -0.311027
RightFoot  1.1822 -0.636002 5.84455
RightToes  -1.16417e-010 0 -3.6325e-017
Spine  -2.72242 0.289801 2.39932
Spine1  7.83013 1.99535 -7.18986
HEad  -14.1822 -5.37899 -4.67871
LeftShoulder1  -0.412224 4.61043 -31.1114
LeftArm  6.57356 0.619168 -36.448
LeftForeArm  20.964 -26.2092 -4.50691
LeftHand  -0.0407156 7.36244 -0.0279611
RightShoulder  -0.850971 -5.84731 29.7046
RightArm  18.156 -6.2327 46.5645
RightForeArm  16.185 14.1292 6.15121
RightHand  0.024088 3.53469 0.0579515
LeftUpLeg  0.169446 3.19024 -4.29395
LeftLeg  20.5845 0.000605799 0.357232
LeftFoot  -18.3155 0.487936 6.19206
LeftToes  1.47335e-010 -1.29615e-010 3.08757e-011
124
root  2.30434 38.4127 -4.22216 -157.749 -86.3445 155.834
RightUpLeg  -21.0268 -6.23305 -5.30422
RightLeg  6.16618 7.38852 -0.323657
RightFoot  3.52326 -0.844301 6.62317
RightToes  -1.16417e-010 0 -3.6325e-017
Spine  -1.98808 0.232333 4.24777
Spine1  8.16225 1.93155 -7.2393
HEad  -14.2128 -6.36102 -5.39694
LeftShoulder1  -0.406711 4.593 -31.1675
LeftArm  6.18228 0.786746 -36.3222
LeftForeArm  20.7186 -26.2452 -4.52802
LeftHand  -0.045079 7.58232 -0.158058
RightShoulder  -0.815325 -5.75406 29.5984
RightArm  18.9378 -6.36824 46.1141
RightForeArm  15.3176 14.615 6.09177
RightHand  -0.017824 3.17667 -0.471656
LeftUpLeg  1.54115 3.15174 -3.58905
LeftLeg  23.8287 0.013589 0.35981
LeftFoot  -20.0437 0.497358 5.00227
LeftToes  1.47335e-010 -1.29615e-010 3.08757e-011
125
root  1.22613 38.0406 -4.25676 -163.694 -86.7568 160.412
RightUpLeg  -21.4248 -6.64339 -5.47219
RightLeg  11.8627 7.61022 0.934662
RightFoot  7.6042 -1.02948 6.47269
RightToes  -1.16417e-010 0 -3.6325e-017
Spine  -0.808376 -0.0262279 5.88591
Spine1  8.64321 1.71835 -6.85244
HEad  -14.7451 -6.77756 -6.37788
LeftShoulder1  -0.481533 4.76764 -31.9676
LeftArm  5.50086 1.21584 -35.8227
LeftForeArm  21.5163 -26.4641 -4.53219
LeftHand  -0.0489994 8.0544 -0.266082
RightShoulder  -0.765101 -5.63555 29.2328
RightArm  19.5807 -6.34182 45.7932
RightForeArm  14.643 15.3261 5.89916
RightHand  -0.0107236 3.6713 -0.39202
LeftUpLeg  1.2668 4.22687 -2.44959
LeftLeg  31.2026 -1.77828 -0.885768
LeftFoot  -21.1302 0.291734 2.02123
LeftToes  1.47335e-010 -1.29615e-010 3.08757e-011
126
root  0.25235 37.5264 -4.25893 168.971 -87.7259 -173.351
RightUpLeg  -23.3147 -7.63161 -4.92856
RightLeg  21.0466 7.9948 3.15907
RightFoot  5.53733 -0.573782 4.10478
RightToes  -1.16417e-010 0 -3.6325e-017
Spine  1.0906 -0.831127 9.19907
Spine1  8.19978 1.36926 -7.58233
HEad  -16.0646 -6.87467 -6.98576
LeftShoulder1  -0.432045 4.64204 -31.821
LeftArm  4.46449 2.70252 -35.5833
LeftForeArm  20.8996 -27.5921 -4.81227
LeftHand  -0.0210976 8.96043 0.897161
RightShoulder  -0.858916 -5.85136 29.9853
RightArm  20.2528 -6.05262 44.4934
RightForeArm  13.5546 16.9414 5.30177
RightHand  0.045133 3.85096 0.310743
LeftUpLeg  -2.80901 6.04853 0.552732
LeftLeg  44.6633 -4.81638 -4.80583
LeftFoot  -18.3236 -0.0182603 -2.89036
LeftToes  1.47335e-010 -1.29615e-010 3.08757e-011
127
root  -0.607934 36.9443 -4.25096 108.255 -87.8742 -114.995
RightUpLeg  -23.3754 -8.09074 -4.27478
RightLeg  29.4091 6.96849 3.99317
RightFoot  1.7541 -0.238572 2.15433
RightToes  -1.16417e-010 0 -3.6325e-017
Spine  4.7727 -2.44236 11.4683
Spine1  7.56134 0.243092 -7.42195
HEad  -18.0699 -9.04768 -6.6084
LeftShoulder1  -0.387874 4.5169 -32.1554
LeftArm  1.82164 5.59203 -34.7342
LeftForeArm  23.1741 -31.9658 -5.7191
LeftHand  -0.0361674 8.74068 0.248582
RightShoulder  -0.851455 -5.81626 30.2023
RightArm  20.7233 -5.91662 43.2663
RightForeArm  9.59772 20.8941 4.6497
RightHand  -0.0508455 4.36201 -0.883353
LeftUpLeg  -7.82418 6.73591 4.12891
LeftLeg  59.1777 -5.69232 -9.47014
LeftFoot  -8.64396 0.23209 -8.18719
LeftToes  1.47335e-010 -1.29615e-010 3.08757e-011
128
root  -1.44171 36.4309 -4.43847 50.5432 -87.0385 -59.1628
RightUpLeg  -22.9895 -9.5006 -4.05664
RightLeg  36.189 5.73539 4.21853
RightFoot  -2.52916 -0.0434972 0.383244
RightToes  -1.16417e-010 0 -3.6325e-017
Spine  5.91814 -4.14602 9.28847
Spine1  9.78376 -1.69812 -4.79577
HEad  -21.5889 -12.9341 -4.92912
LeftShoulder1  -0.334412 4.36925 -32.5154
LeftArm  -0.89666 8.56568 -33.1359
LeftForeArm  26.5566 -40.9447 -8.02197
LeftHand  -0.0627794 7.70258 -1.03055
RightShoulder  -0.901519 -5.92004 30.7061
RightArm  21.7169 -4.29289 41.6078
RightForeArm  7.17578 28.9018 5.82058
RightHand  -0.143193 4.39914 -1.98761
LeftUpLeg  -13.4952 6.37681 6.93591
LeftLeg  69.7793 -3.70488 -10.2567
LeftFoot  -2.07889 0.785747 -9.71348
LeftToes  1.47335e-010 -1.29615e-010 3.08757e-011
129
root  -2.32986 36.1167 -4.84667 50.9412 -85.8272 -59.9533
RightUpLeg  -23.0752 -8.92434 -2.69181
RightLeg  40.3698 4.24016 3.55084
RightFoot  -6.01478 -0.0113859 -0.632835
RightToes  -1.16417e-010 0 -3.6325e-017
Spine  4.68132 -4.92602 6.16059
Spine1  12.579 -2.96351 -3.62112
HEad  -25.9699 -15.9228 -3.10761
LeftShoulder1  -0.281023 4.23069 -32.4103
LeftArm  -0.347814 10.0818 -30.8936
LeftForeArm  29.3004 -52.8327 -12.6152
LeftHand  -0.0412698 8.54513 0.16097
RightShoulder  -0.954851 -6.05802 30.8002
RightArm  21.3555 -3.02434 41.2868
RightForeArm  10.4568 41.119 9.16477
RightHand  -0.145098 3.86992 -2.08119
LeftUpLeg  -19.0066 7.60393 11.1165
LeftLeg  74.5803 -2.72429 -10.1851
LeftFoot  -7.5157 0.363729 -9.36943
LeftToes  1.47335e-010 -1.29615e-010 3.08757e-011
